<svg height="24" width="24" xmlns="http://www.w3.org/2000/svg" viewBox="0 0 24 24" xml:space="preserve">
    <title>Instagram</title>
    <path d="M16.2,2H7.8C4.597,2,2,4.597,2,7.8v8.4C2,19.4,4.6,22,7.8,22h8.4c3.203,0,5.8-2.597,5.8-5.8V7.8C22,4.6,19.4,2,16.2,2z
       M12,17c-2.761,0-5-2.238-5-5c0-2.761,2.239-5,5-5c2.762,0,5,2.239,5,5C17,14.762,14.762,17,12,17z M17.25,8
      C16.56,8,16,7.44,16,6.75s0.56-1.25,1.25-1.25s1.25,0.56,1.25,1.25S17.94,8,17.25,8z M12,9c-1.657,0-3,1.343-3,3
      c0,1.656,1.343,3,3,3c1.656,0,3-1.344,3-3C15,10.343,13.656,9,12,9z">
    </path>
</svg>
